<svg xmlns="http://www.w3.org/2000/svg" xmlns:xlink="http://www.w3.org/1999/xlink" width="59.999" height="60" xml:space="preserve"><defs><path id="a" d="M30 60C13.458 60 0 46.542 0 30S13.458 0 30 0c16.543 0 29.999 13.458 29.999 30S46.543 60 30 60z"/></defs><clipPath id="b"><use xlink:href="#a" overflow="visible"/></clipPath><g clip-path="url(#b)"><path fill="#3A3A3A" d="M30 60C13.458 60 0 46.542 0 30S13.458 0 30 0c16.543 0 29.999 13.458 29.999 30S46.543 60 30 60z"/></g><g clip-path="url(#b)"><path fill="#FFF" d="M26.504 41.386c-1.063 1.027-2.31 1.542-3.742 1.542-1.43 0-2.518-.37-3.255-1.108-.738-.738-1.108-1.686-1.108-2.84 0-2.726 2.066-5.047 6.2-6.964.113-.971.281-2.281.501-3.933.219-1.649.393-2.983.52-4 .125-1.016.213-1.686.258-2.01.946-.599 2.045-.899 3.292-.899.575 0 1.131.058 1.662.174L28.65 36.139c-.368 2.472-1.085 4.22-2.146 5.247zm-7.76-17.338c0-2.193.971-4.012 2.91-5.456 1.941-1.443 4.504-2.165 7.69-2.165 1.685 0 3.199.167 4.539.501 1.338.335 2.4.757 3.187 1.265a8.148 8.148 0 0 1 1.974 1.766c.879 1.155 1.311 2.443 1.301 3.862-.013 1.42-.572 2.686-1.682 3.793-1.107 1.108-2.447 1.686-4.017 1.732 1.962.138 3.666.786 5.109 1.939 1.442 1.157 2.164 2.611 2.164 4.366 0 2.311-.889 4.11-2.667 5.404-1.779 1.293-3.943 1.939-6.496 1.939-2.552 0-4.29-.334-5.212-1.005l1.073-2.909c1.016.531 2.2.797 3.551.797 1.35 0 2.453-.398 3.309-1.195.854-.797 1.281-1.854 1.281-3.17s-.582-2.426-1.752-3.324c-1.165-.903-2.752-1.352-4.76-1.352l.311-2.563c1.387 0 2.559-.33 3.518-.987.957-.659 1.454-1.646 1.488-2.963.036-1.316-.562-2.424-1.784-3.324-1.315-.948-3.118-1.421-5.404-1.421-1.502 0-2.967.387-4.4 1.161-1.432.774-2.146 1.808-2.146 3.1 0 .624.252 1.149.762 1.576.506.428 1.176.688 2.009.78l-.382 2.563c-1.753-.068-3.106-.565-4.053-1.49-.947-.921-1.421-1.995-1.421-3.22zm2.217 14.481c0 .832.392 1.246 1.177 1.246.325 0 .664-.211 1.022-.639s.606-1.104.745-2.027l.312-2.146c-2.17 1.222-3.256 2.412-3.256 3.566z"/><linearGradient id="c" gradientUnits="userSpaceOnUse" x1="19.895" y1="26.627" x2="44.353" y2="54.595"><stop offset=".005" style="stop-color:#111"/><stop offset=".343" style="stop-color:#151515"/><stop offset=".692" style="stop-color:#222"/><stop offset="1" style="stop-color:#333"/></linearGradient><path fill="url(#c)" d="m24.6 32.016.029-.241-.188.318c.054-.025.104-.051.159-.077z"/><linearGradient id="d" gradientUnits="userSpaceOnUse" x1="24.629" y1="31.775" x2="24.629" y2="31.775"><stop offset=".005" style="stop-color:#111"/><stop offset=".343" style="stop-color:#151515"/><stop offset=".692" style="stop-color:#222"/><stop offset="1" style="stop-color:#333"/></linearGradient><linearGradient id="e" gradientUnits="userSpaceOnUse" x1="15.967" y1="30.091" x2="40.358" y2="57.981"><stop offset=".005" style="stop-color:#111"/><stop offset=".361" style="stop-color:#151515"/><stop offset=".678" style="stop-color:#1f1f1f"/><stop offset=".98" style="stop-color:#313131"/><stop offset="1" style="stop-color:#333"/></linearGradient><path fill="url(#e)" d="M18.399 38.98c0 1.135.361 2.065 1.074 2.799l1.629-3.942a1.997 1.997 0 0 0-.141.692c0 .832.392 1.246 1.177 1.246.325 0 .664-.211 1.022-.639s.606-1.104.745-2.027l.312-2.146c-1.584.893-2.584 1.767-3.011 2.623l.015-.039 3.22-5.453c-4.025 1.902-6.042 4.197-6.042 6.886z"/><linearGradient id="f" gradientUnits="userSpaceOnUse" x1="24.646" y1="22.495" x2="49.046" y2="50.395"><stop offset=".005" style="stop-color:#111"/><stop offset=".361" style="stop-color:#151515"/><stop offset=".678" style="stop-color:#1f1f1f"/><stop offset=".98" style="stop-color:#313131"/><stop offset="1" style="stop-color:#333"/></linearGradient><path fill="url(#f)" d="M38.347 19.208c.251.239.485.488.696.752.879 1.155 1.311 2.443 1.301 3.862-.013 1.42-.572 2.686-1.682 3.793-1.107 1.108-2.447 1.686-4.017 1.732 1.962.138 3.666.786 5.109 1.939 1.442 1.157 2.164 2.611 2.164 4.366 0 2.311-.889 4.11-2.667 5.404-1.779 1.293-3.943 1.939-6.496 1.939-2.552 0-4.29-.334-5.212-1.005l1.073-2.909c1.016.531 2.2.797 3.551.797 1.35 0 2.453-.398 3.309-1.195.854-.797 1.281-1.854 1.281-3.17s-.582-2.426-1.752-3.324c-1.165-.903-2.752-1.352-4.76-1.352l.311-2.563c1.387 0 2.559-.33 3.518-.987.957-.659 1.454-1.646 1.488-2.963C35.598 23.008 35 21.9 33.778 21c-1.315-.948-3.118-1.421-5.404-1.421-1.502 0-2.967.387-4.4 1.161-1.432.774-2.146 1.808-2.146 3.1 0 .624.252 1.149.762 1.576.506.428 1.176.688 2.009.78l-.382 2.563.714.607.169-1.284c.219-1.649.393-2.983.52-4 .125-1.016.213-1.686.258-2.01.946-.599 2.045-.899 3.292-.899.575 0 1.131.058 1.662.174L28.65 36.138c-.37 2.473-1.086 4.221-2.147 5.248-1.063 1.027-2.31 1.542-3.742 1.542-1.356 0-2.394-.344-3.126-1.009l22.508 19.715 19.379-22.127-23.175-20.299z"/><path fill="#FFF" d="m37.781 18.712.565.496a7.98 7.98 0 0 0-.565-.496zM19.507 41.82c.039.037.088.063.129.1l-.163-.141c.013.012.022.027.034.041z"/><path fill="#FFF" d="M26.504 41.386c1.061-1.027 1.778-2.775 2.147-5.248l2.182-14.791a7.767 7.767 0 0 0-1.662-.174c-1.248 0-2.347.301-3.292.899a148.2 148.2 0 0 0-.258 2.01 547.97 547.97 0 0 1-.52 4c-.22 1.652-.388 2.962-.501 3.933-4.134 1.917-6.2 4.238-6.2 6.964 0 1.135.361 2.065 1.074 2.799l.163.141c.733.665 1.77 1.009 3.126 1.009 1.431 0 2.678-.514 3.741-1.542zm-5.543-2.857c0-1.154 1.085-2.344 3.256-3.566l-.312 2.146c-.139.924-.387 1.6-.745 2.027s-.697.639-1.022.639c-.784 0-1.177-.414-1.177-1.246z"/></g></svg>